<svg xmlns="http://www.w3.org/2000/svg" width="216" height="108" viewBox="0 0 216 108">
    <g fill="none" fill-rule="nonzero">
        <path fill="#000" d="M102.284 20.045l4.38 5.485a7.15 7.15 0 0 0 1.605 1.574c.31.191.666.292 1.03.292v.343h-6.493v-.343c.278-.002.55-.069.798-.195a.403.403 0 0 0 .18-.335 3.366 3.366 0 0 0-.844-1.493l-2.858-3.59-.463.381v3.44c-.029.407.01.815.112 1.21a.91.91 0 0 0 .426.41 2.18 2.18 0 0 0 1 .172v.343h-6.284v-.343h.41c.303.011.604-.056.874-.195a.813.813 0 0 0 .365-.44c.095-.378.13-.768.105-1.157v-8.208a4.022 4.022 0 0 0-.105-1.195.88.88 0 0 0-.41-.417 1.627 1.627 0 0 0-.828-.18h-.41v-.343h6.2v.343a2.097 2.097 0 0 0-.97.18c-.168.1-.299.251-.373.432-.102.385-.14.783-.112 1.18v3.873l4.62-3.732c.65-.522.97-.933.97-1.246a.62.62 0 0 0-.396-.552 3.104 3.104 0 0 0-1.007-.127v-.343h4.866v.343a2.65 2.65 0 0 0-1.023.231c-.601.382-1.175.806-1.716 1.269l-3.65 2.933zM116.35 15.104a6.18 6.18 0 0 1 6.717 6.359 6.657 6.657 0 0 1-1.388 4.171 6.187 6.187 0 0 1-5.224 2.388 6.299 6.299 0 0 1-5.224-2.283 6.597 6.597 0 0 1-1.388-4.269 6.201 6.201 0 0 1 1.888-4.627 5.97 5.97 0 0 1 4.62-1.739zm.113.583a2.828 2.828 0 0 0-2.605 1.746 9.433 9.433 0 0 0-.746 4.12c0 2.126.373 3.693 1.12 4.716a2.56 2.56 0 0 0 2.186 1.06 2.612 2.612 0 0 0 1.634-.456 3.806 3.806 0 0 0 1.261-1.88c.332-1.09.483-2.227.448-3.366a11.015 11.015 0 0 0-.462-3.731 3.582 3.582 0 0 0-1.165-1.732 2.784 2.784 0 0 0-1.671-.477zM128.403 15.276l6.15 7.724v-5.35a2.567 2.567 0 0 0-.322-1.493 1.769 1.769 0 0 0-1.492-.515v-.343h4.112v.343a3.03 3.03 0 0 0-1.06.261 1.052 1.052 0 0 0-.425.522 3.68 3.68 0 0 0-.15 1.247v10.373h-.313l-8.425-10.373v7.895c-.07.533.112 1.068.492 1.448.321.251.719.386 1.127.38h.291v.344h-4.366v-.343a2 2 0 0 0 1.433-.426 1.97 1.97 0 0 0 .403-1.403v-8.79l-.261-.337c-.19-.259-.428-.48-.701-.649a2.022 2.022 0 0 0-.874-.172v-.343h4.381zM150.291 15.007v4.389h-.343a5.575 5.575 0 0 0-1.844-2.732 4.336 4.336 0 0 0-2.694-.94 3.47 3.47 0 0 0-2.32.746 4.216 4.216 0 0 0-1.314 2.194c-.26.938-.39 1.907-.388 2.88a10.448 10.448 0 0 0 .425 3.143c.206.8.687 1.503 1.359 1.985a3.888 3.888 0 0 0 2.238.634c.311 0 .622-.032.926-.097.33-.067.654-.16.97-.276v-2.567a2.776 2.776 0 0 0-.105-.956.925.925 0 0 0-.417-.388 1.493 1.493 0 0 0-.747-.171h-.373v-.344h6.06v.344c-.33 0-.657.063-.963.186a.963.963 0 0 0-.418.47c-.072.28-.1.57-.082.859v2.582c-.798.354-1.63.624-2.485.806-.881.181-1.78.271-2.679.268a7.828 7.828 0 0 1-2.948-.485 7.261 7.261 0 0 1-2.067-1.268 5.918 5.918 0 0 1-1.395-1.769 6.127 6.127 0 0 1-.65-2.836 6.433 6.433 0 0 1 1.978-4.754 6.82 6.82 0 0 1 5-1.903c.56-.006 1.12.041 1.672.142a9.85 9.85 0 0 1 1.313.418c.343.153.7.27 1.067.35a.746.746 0 0 0 .478-.193c.193-.198.332-.442.403-.71l.343-.007zM160.784 15.007l.097 4.15h-.374a4.261 4.261 0 0 0-1.306-2.508 3.313 3.313 0 0 0-2.238-.955 2.15 2.15 0 0 0-1.493.5 1.56 1.56 0 0 0-.545 1.157c-.007.262.06.52.194.746.227.34.519.631.859.858.641.399 1.307.758 1.992 1.075a8.91 8.91 0 0 1 2.948 2.03 3.44 3.44 0 0 1 .746 2.186 3.545 3.545 0 0 1-1.216 2.687 4.366 4.366 0 0 1-3.09 1.127 4.791 4.791 0 0 1-1.112-.12 9.194 9.194 0 0 1-1.32-.447 1.88 1.88 0 0 0-.747-.187.888.888 0 0 0-.507.187c-.193.141-.341.336-.426.56h-.343v-4.74h.343a5.373 5.373 0 0 0 1.553 3.03 3.657 3.657 0 0 0 2.485 1.045 2.328 2.328 0 0 0 1.641-.56c.642-.53.8-1.45.374-2.164a2.545 2.545 0 0 0-.71-.783c-.53-.376-1.095-.7-1.686-.97-.86-.396-1.68-.873-2.448-1.426a4.276 4.276 0 0 1-1.142-1.313 3.231 3.231 0 0 1-.403-1.597 3.388 3.388 0 0 1 1.097-2.538 3.836 3.836 0 0 1 2.754-1.044c.398-.003.795.047 1.18.149.362.1.714.236 1.052.403.266.154.56.255.865.298a.485.485 0 0 0 .373-.142c.141-.212.23-.455.262-.708l.29.014zM170.776 21.127a6.418 6.418 0 0 1 2.5 1 2.672 2.672 0 0 1 1.03 2.172 2.866 2.866 0 0 1-1.127 2.328 6.35 6.35 0 0 1-4.037 1.112h-6.314v-.343c.398.03.798-.027 1.172-.165a.94.94 0 0 0 .433-.418c.11-.413.15-.842.12-1.268v-8.082c.03-.427-.01-.856-.12-1.269a.866.866 0 0 0-.44-.418 2.925 2.925 0 0 0-1.165-.157v-.343h5.97a8.47 8.47 0 0 1 3.03.38c.573.234 1.063.631 1.41 1.143.333.472.513 1.034.516 1.611 0 .6-.236 1.177-.657 1.605a4.731 4.731 0 0 1-2.32 1.112zm-3.343.47v4.478a.88.88 0 0 0 1 1c.472.005.938-.105 1.358-.321.405-.212.736-.543.948-.948.227-.424.342-.9.336-1.38a2.985 2.985 0 0 0-.41-1.568 2.134 2.134 0 0 0-1.113-.97 5.903 5.903 0 0 0-2.12-.291zm0-.746a4.761 4.761 0 0 0 1.925-.291c.38-.174.703-.45.933-.799.233-.414.346-.884.328-1.358a2.56 2.56 0 0 0-.328-1.358 2.067 2.067 0 0 0-.933-.806 5.03 5.03 0 0 0-1.948-.261l.023 4.873zM180.09 15.993v5.074h.246a1.97 1.97 0 0 0 1.716-.746 4.56 4.56 0 0 0 .68-2.194h.35v6.522h-.35a4.873 4.873 0 0 0-.463-1.746 2.015 2.015 0 0 0-.821-.918 3.134 3.134 0 0 0-1.358-.231v3.507c-.021.422.006.846.082 1.261.063.159.18.29.328.374.232.113.489.164.746.149h.747a4.015 4.015 0 0 0 4.313-3.269h.336l-.56 3.963h-10.746v-.343h.418c.303.011.603-.056.873-.195.17-.1.299-.255.366-.44.09-.378.123-.768.097-1.157v-8.208a6.634 6.634 0 0 0-.045-1.038.888.888 0 0 0-.336-.5 1.59 1.59 0 0 0-.955-.254h-.418v-.343h10.448v3.702h-.351a4.53 4.53 0 0 0-.746-1.94 2.784 2.784 0 0 0-1.359-.866 7.724 7.724 0 0 0-1.932-.164h-1.306zM192.507 22.06v3.485c-.03.43.014.86.127 1.276a.91.91 0 0 0 .433.418c.376.13.775.183 1.172.157v.343h-6.38v-.343c.397.03.797-.026 1.17-.165a.91.91 0 0 0 .434-.418c.114-.412.156-.841.127-1.268v-8.082a3.813 3.813 0 0 0-.127-1.269.873.873 0 0 0-.433-.418 2.985 2.985 0 0 0-1.172-.157v-.343h5.791a12.59 12.59 0 0 1 3.306.314 3.32 3.32 0 0 1 1.694 1.149c.441.564.675 1.262.664 1.977a2.985 2.985 0 0 1-.977 2.262 4.075 4.075 0 0 1-1.776.85l2.985 4.217c.244.367.524.71.836 1.022.25.195.556.305.873.314v.343h-3.918l-4.015-5.68-.814.016zm0-6.112v5.455h.523c.645.03 1.29-.05 1.91-.231a1.933 1.933 0 0 0 1-.844c.261-.49.387-1.041.366-1.597a2.896 2.896 0 0 0-.672-2.104 2.88 2.88 0 0 0-2.141-.68h-.986zM214.082 15.007v4.389h-.343a5.575 5.575 0 0 0-1.843-2.732 4.336 4.336 0 0 0-2.695-.94 3.47 3.47 0 0 0-2.343.776 4.216 4.216 0 0 0-1.313 2.194c-.26.938-.391 1.907-.388 2.88a10.448 10.448 0 0 0 .425 3.142c.205.801.686 1.504 1.358 1.985a3.925 3.925 0 0 0 2.24.635c.31 0 .62-.032.924-.097.33-.066.655-.159.97-.276v-2.597a2.776 2.776 0 0 0-.104-.956.925.925 0 0 0-.418-.388 1.493 1.493 0 0 0-.746-.171h-.32v-.344h6.059v.344c-.33 0-.657.063-.963.186a.963.963 0 0 0-.418.47c-.073.28-.1.57-.082.859v2.582c-.798.354-1.63.624-2.485.806-.881.181-1.78.271-2.68.268-1.001.03-2-.135-2.94-.485a7.201 7.201 0 0 1-2.104-1.26 5.918 5.918 0 0 1-1.395-1.77 6.12 6.12 0 0 1-.642-2.835 6.425 6.425 0 0 1 2.037-4.754 6.82 6.82 0 0 1 4.933-1.91c.56-.007 1.12.04 1.672.141a9.85 9.85 0 0 1 1.313.418c.343.153.7.27 1.067.35a.746.746 0 0 0 .478-.193c.193-.198.332-.442.403-.71l.343-.007zM100.067 36.746l4.597 4.567a8.209 8.209 0 0 0 1.933 1.538 4.037 4.037 0 0 0 1.597.47v.336h-5.925v-.336c.26.016.52-.047.746-.18a.522.522 0 0 0 .231-.402.858.858 0 0 0-.09-.396 3.418 3.418 0 0 0-.574-.649l-4.298-4.254v4.015c-.026.42.015.84.119 1.246a.791.791 0 0 0 .388.396c.254.148.542.225.836.224h.418v.336h-5.306v-.336h.44c.425.039.842-.13 1.12-.455.198-.442.275-.93.223-1.41v-8.053a4.388 4.388 0 0 0-.112-1.231.858.858 0 0 0-.38-.388 1.716 1.716 0 0 0-.843-.224h-.44V31.2h5.305v.336h-.418c-.292.002-.579.077-.835.217a.746.746 0 0 0-.396.44 4.097 4.097 0 0 0-.112 1.209v3.813l1.261-1.164a27.843 27.843 0 0 0 3.299-3.336c.141-.186.227-.408.246-.641a.478.478 0 0 0-.194-.374.985.985 0 0 0-.65-.164h-.29v-.336h4.582v.336a2.791 2.791 0 0 0-.746.112c-.282.1-.552.23-.806.388-.4.278-.775.59-1.12.933-.134.127-.746.746-1.866 1.888l-1.94 1.888zM114.918 30.918a5.657 5.657 0 0 1 4.201 1.836 6.366 6.366 0 0 1 1.777 4.642 6.545 6.545 0 0 1-1.792 4.708 5.97 5.97 0 0 1-8.656.045 6.56 6.56 0 0 1-1.754-4.753 6.299 6.299 0 0 1 2.022-4.836 5.97 5.97 0 0 1 4.202-1.642zm-.172.664a3.284 3.284 0 0 0-2.686 1.246 7 7 0 0 0-1.261 4.478 7.463 7.463 0 0 0 1.305 4.701 3.246 3.246 0 0 0 2.65 1.247 3.612 3.612 0 0 0 2.895-1.366c.747-.918 1.15-2.358 1.15-4.32 0-2.135-.426-3.732-1.262-4.77a3.388 3.388 0 0 0-2.79-1.216zM129.32 43.657l-4.813-10.448V41.5c-.06.492.028.991.254 1.433.284.28.677.422 1.075.388h.425v.336h-4.336v-.336h.44c.43.039.85-.14 1.12-.478.175-.425.244-.886.202-1.343v-8.142a2.769 2.769 0 0 0-.187-1.194.985.985 0 0 0-.47-.448 2.53 2.53 0 0 0-1.105-.179v-.336h3.523l4.545 9.747 4.477-9.747H138v.336h-.433a1.299 1.299 0 0 0-1.134.478 2.813 2.813 0 0 0-.202 1.343V41.5c-.059.493.032.992.262 1.433.284.28.676.422 1.074.388H138v.336h-5.291v-.336h.44c.43.042.852-.138 1.12-.478.175-.425.244-.886.201-1.343v-8.328l-4.806 10.447-.343.038zM146.052 43.657l-4.813-10.448V41.5c-.06.492.027.991.254 1.433.282.279.671.42 1.067.388h.447v.336h-4.343v-.336h.448c.43.039.85-.14 1.12-.478.174-.425.243-.886.2-1.343v-8.142a2.769 2.769 0 0 0-.186-1.194.985.985 0 0 0-.47-.448 2.545 2.545 0 0 0-1.112-.179v-.336h3.53l4.522 9.747 4.478-9.747h3.53v.336h-.433a1.299 1.299 0 0 0-1.134.478 2.813 2.813 0 0 0-.202 1.343V41.5c-.06.493.032.992.261 1.433.285.28.677.422 1.075.388h.433v.336h-5.328v-.336h.44c.43.042.852-.138 1.12-.478.174-.425.243-.886.2-1.343v-8.328l-4.805 10.447-.299.038zM164.067 31.537v-.336h4.403v.336h-.463a1.276 1.276 0 0 0-1.134.62c-.17.418-.236.871-.194 1.32v5.053a9 9 0 0 1-.366 2.91 3.731 3.731 0 0 1-1.492 1.769 5.15 5.15 0 0 1-2.985.746 5.575 5.575 0 0 1-3.097-.709 3.784 3.784 0 0 1-1.493-1.903 10.65 10.65 0 0 1-.29-3.067v-4.873a2.463 2.463 0 0 0-.322-1.493 1.299 1.299 0 0 0-1.022-.358h-.47v-.35h5.448v.335h-.478a1.239 1.239 0 0 0-1.105.485 2.709 2.709 0 0 0-.23 1.381v5.433c.005.557.05 1.113.133 1.664.045.528.21 1.04.486 1.493.253.37.597.668 1 .865a3.433 3.433 0 0 0 1.611.343 4.396 4.396 0 0 0 2.187-.537 2.776 2.776 0 0 0 1.32-1.365c.291-.908.413-1.862.36-2.814v-5.082a2.582 2.582 0 0 0-.262-1.493 1.358 1.358 0 0 0-1.067-.403l-.478.03z"/>
        <path fill="#000" d="M168.425 31.201h3.359l7.619 9.344v-7.187a2.53 2.53 0 0 0-.254-1.433 1.396 1.396 0 0 0-1.082-.388h-.425v-.336h4.336v.336h-.44c-.433-.04-.856.14-1.128.478a2.813 2.813 0 0 0-.201 1.343v10.5h-.328l-8.21-10.03V41.5c-.06.492.028.991.254 1.433.286.277.678.419 1.075.388h.44v.336h-4.336v-.336h.44c.435.041.861-.138 1.135-.478.175-.425.244-.886.202-1.343v-8.664a5.38 5.38 0 0 0-.821-.836 3.15 3.15 0 0 0-.821-.38 3.082 3.082 0 0 0-.814-.083v-.336zM186.194 31.88v4.926h2.754c.497.055 1-.058 1.425-.32.37-.408.562-.945.537-1.493h.336v4.335h-.336a4.672 4.672 0 0 0-.26-1.164 1.164 1.164 0 0 0-.546-.507 2.806 2.806 0 0 0-1.156-.18h-2.739v4.105c-.018.338.007.676.075 1.008a.567.567 0 0 0 .26.283c.221.086.459.122.695.105h2.112c.517.02 1.034-.031 1.537-.15.348-.113.664-.31.918-.574a7.276 7.276 0 0 0 1.172-1.717h.365l-1.074 3.12h-9.62v-.336h.44c.293 0 .58-.075.836-.217a.746.746 0 0 0 .403-.44c.09-.394.124-.798.105-1.201v-8.097a2.664 2.664 0 0 0-.239-1.493 1.425 1.425 0 0 0-1.104-.373h-.44v-.299h9.604l.134 2.724h-.358a4.32 4.32 0 0 0-.426-1.35 1.545 1.545 0 0 0-.694-.56 4.291 4.291 0 0 0-1.298-.134h-3.418z"/>
        <path fill="#00B259" stroke="#FFF" stroke-width="4" d="M79.753 84.604a41.353 41.353 0 0 1-15.17 15.38 41.353 41.353 0 0 1-20.855 5.64 41.353 41.353 0 0 1-20.855-5.64 41.353 41.353 0 0 1-15.17-15.38A41.353 41.353 0 0 1 2.35 63.688V2.35h82.753v61.337a41.353 41.353 0 0 1-5.351 20.916z"/>
        <path fill="#000" d="M4 63.701V4h79.448v59.701c0 21.94-17.785 39.724-39.724 39.724A39.724 39.724 0 0 1 4 63.701zm.694 0a38.918 38.918 0 0 0 11.433 27.612 38.896 38.896 0 0 0 27.612 11.433c10.36.02 20.299-4.095 27.612-11.433a38.888 38.888 0 0 0 11.433-27.612V4.694H4.694v59.007z"/>
        <path fill="#000" d="M77.336 50.59l-.224-.97.246-.307.657-.82a2.239 2.239 0 0 0-.888-2.754 2.336 2.336 0 0 0-3.03.985l-2.306.045-1.067-1.493V31.694l.746-.201c.91-.665.515-1.859.5-2.784a1.493 1.493 0 0 1 .052-.582c.135-.642.41-1.44-.29-1.91 1.44-1.874-1.859-.426-.97-2.47-.396-.919.82-1.016 1.35-.948v-2.5h-5.224l-.112 2.171c.38.634 1.754-.224 1.68.799-.075 1.022.134 2.12-1.262 1.865a3.731 3.731 0 0 0-1.38 3.03c-.045.746 0 1.605 0 2.366-1.918 1.15-3.627 3.59-5.068 5.276a15.985 15.985 0 0 0-2.671-4.007c1.09-1.045-1.053-2.015-.06-3.053-.082-.179-.142-.388-.209-.582-.157-.492-.313-.963-.843-1.15l.365-.38c-.746-.813-.88-2.201-1.731-3.104-2.239-.694-5.358-.164-7.873-1.045a3.731 3.731 0 0 1-.418-2.672c.635.182 1.317.06 1.85-.328.919-.478-.2-1.104.15-1.664h.187c0-.463.335-.552.223-1.493 1.038-1.738-.5-3.328-.164-4.992 1-.672 0-1.664-.052-2.403-1.754.127-3.731-1.037-5.537.112-.94-.814-2.321-.329-3.523-.396-.627.851-2.239-.418-2.283 1.157-.19.63-.074 1.312.313 1.843-.15 1.664.157 3.135-.179 4.717.18 0 .455-.105.642.074-.44.94.866 1.74.052 2.59.209 1.104 2.134.328 2.06 1.433-.075 1.104-.873 2.238-2.075 2.238-2.843 1.075-7.769-.395-8.604 4.06.163.43.209.897.134 1.35a5.015 5.015 0 0 1-.627 1.822c.231 2.306-1.12 4.268-2.186 6.134-1.829 1.15-3.262 3.396-4.702 5.09-.209-1.105.067-2.403-.052-3.694-1.015.112-3.224.612-3.224.612v-9.94-13.777c.157-.477-.09-2.239-.127-3.731A6.396 6.396 0 0 0 17.8 7.015a8.15 8.15 0 0 0-1.986 5.134s0 8.71-.044 16.015c0 5.284-.038 9.843-.038 9.843-.746.665-2.022-.806-3.082-.59v4.434c.888-.194 2.493-1.784 4.127-1 0 .365.112.828-.067 1.104a1.06 1.06 0 0 0-1.187.582 4.963 4.963 0 0 1-.335 1.762c.746.91-.433 1.395.32 2.238-1 .948.396 1.38.232 2.403.133.196.331.339.56.403.208.075.44.135.656.217-.358.746-1.082 1.224-1.35 1.97 1.037.992 2.35 1.224 3.992.843 1.493-.313-.5-1.746-.425-2.761l.574-.269.88-.41c1.867-3.732 6.65-4.754 9.18-7.761-.806 1.306-1.32 3.447-.276 4.813 3.231-.254 4.642-3.515 5.604-6.216.62-1.396.485-3.336 1.21-4.366 1.641 3.731.156 7.94-1.344 11.298a7.112 7.112 0 0 0-1.664 2.635c-1.037 2.724-.896 6.03-2.067 8.709-.157 1.388-1.597 3.358.09 4.522-.553 4.537-.747 8.888-1.77 13.254-.47-.366-1.216-.814-1.664-.157a3.261 3.261 0 0 0 0 2.776c-1.074 1.59.806 3.127-.276 4.717.485 1.007-.142 2.239.067 3.418l-3.38 1.82c-1.276.747-3.135.344-4.21 1.747 0 .462 0 .925.389 1.194 3.082 1.418 6.716-.597 9.62.268 3.216-.798.171-5.082 2.447-6.88l.657.537c.373.18 1.015.075 1.097-.388-1.164-3.03 1.664-4.567 3.112-6.35v-.829c-.284-.366-.65-.358-1.023-.53l-.164-3.418c1.873-3.552 2.985-7.358 4.396-11.082.843.164.544-.657 1.283-.746a.985.985 0 0 1 .567.634c1.381-.12 3.426.396 4.053-.746l.746.627c.366 4.433 2.836 7.888 4.858 11.545l.082 4.156-.194-.179c-.276-.09-.925-.164-1.194.21-.336 1.85 1.888 2.089 2.739 3.081 1.224 1.18-.41 2.508.261 3.732.284.455 1.112.253 1.493.343 1.79 1.903 0 4.157 1.142 6.35 3.507-.35 7.865.493 11.26-.507.27-.65-.29-.918-.67-1.365-2.59-.135-3.837-2.426-6.165-3.299-.866-1.65.306-3.239-1.112-4.597.097-.097.187-.284.366-.284a9.918 9.918 0 0 1-.105-5.447c-.574-.821-1.104.201-1.567.306a37.396 37.396 0 0 1-.485-5.53c-1.067-2.754-1.134-5.97-1.493-8.844 2.038-.044.702-2.044.59-3.067-1.008-3.12-1.015-6.656-2.239-9.701a10.634 10.634 0 0 0-.746-1.545c-1-4.254-4.575-8.903-1.71-13.291.36 4.239 1.367 8.12 4.441 11.104.657.359 1.687 1.075 2.239.321a3.209 3.209 0 0 0-.15-2.768c-.581-1.65-2.35-2.24-2.298-4.112.955 1.492 1.724 2.985 3.306 3.731 4.776-1.761 5.433-7.463 8.21-11.194 0 4.806.148 9.06 0 13.866l-1.083 1.313c-2.112-.283-3.313.746-4.358-.925-2.03-.746-2.239-.052-2.657 1.067a2.291 2.291 0 0 0 .276 2.433c.194.25.432.462.702.627-.672 2.806-2.321 6.112-2.187 8.56.672 1.149 1.493 2.238 2.776 2.604a4.478 4.478 0 0 0 4.045-1c3.12-3.664-1.358-7.157-1.873-10.791v-.075l.18-.373c1.26.06 2.44-.187 3.417.448.103.063.2.135.291.216.73.585 1.686.804 2.597.597.208-.306.46-.58.746-.813 1.112-.903 2.24-.246 3.508-.202v.202c-.463 2.701-2.239 5.276-2.478 8.261a3.896 3.896 0 0 0 1.814 2.985c1.388.246 2.515.746 3.79.105a5.672 5.672 0 0 0 2.322-3.888l-2.657-6.21zm-56.717-6.12c-.746-.746.232-2.313-1.35-2.746h-.463v-.925c1.493-.493 2.32.746 3.44 1.32a3.664 3.664 0 0 1-1.597 2.351h-.03zm43.53 11.784h-3.097l1.493-4.68 1.604 4.68zm10.187 0l1.492-4.68 1.575 4.672-3.067.008z"/>
        <g fill="#FFF">
            <path d="M49.328 9.612l-3.731-.388c-1.448 1.597-2.418-.784-4.157-.105-1.104.306-2.865.157-2.985 1.448.746.172 2.023-.41 2.418.746.276 0 .552 0 .746-.29.747.82 1.374-.486 1.836-.68.478.635-.44 1.023-.246 1.664.746 1.097-1.067 1.874 0 3.053.388 1.097-.41 2.41.343 3.32a3.448 3.448 0 0 0 0-3.149 2.612 2.612 0 0 1 .418-2.238c.455-.374-.388-.747.254-1.023 1.679.799-.88 1.866.157 3.045 0 1.201.962 2.015.156 3.142h.38c.822-.747.225-2.687-.074-3.88.448-.658 0-1.292.232-2.038 1.007-.478.701-1.955 1.903-2.164.56.268-.172.649-.165 1.022.366-.194.747-.201.91-.575.635-.38 1.576.06 2.03-.037-.589-.037-.417-.597-.425-.873z"/>
            <path d="M49.448 15.709c-.12-1.493-.605-2.761-.448-4.246-.948-.993-1.56.865-2.769.425-1.097.582-.328 1.858-.679 2.694.485 1.194.747 3.224-.104 4.164-1.105.299-1.836.59-2.776-.127.701-2.141-1.65-4.126.067-6.104-.105-.552-.478-.545-.94-.627-.918.299-1.583-.522-2.329-.784a1.799 1.799 0 0 0-.604 1.859c.843.813-.329 2.037 0 2.985.276 0 .56.082.835.074-.09-.082-.283-.171-.194-.455.09 0 .18-.186.366-.194 1.306.746-.62 1.217-.522 1.769.373.082.462 0 .746-.291.373.179.202.746.202 1.104h-.642c.933.351-.358.65-.067 1.202l1.492.06c.552.179 1-.851 1.388 0a1.007 1.007 0 0 1-.642.574c-.238 1.664-1.141 2.985-.634 4.903 2.03.144 4.067.104 6.09-.12 0-.365-.105-.746.074-1.014-.746-1.276-.343-3.232-1.492-4.038.433-1.395 1.85.515 3.037-.432-.194-.456-.672-1.187 0-1.665-.552-.171-.269.284-.634.478a1.007 1.007 0 0 1-.299-1.194h.276c.05.049.083.111.097.18l.642-.098-.097-.373c-.366.283-.746 0-1.022-.254-.105-.463.171-.65.44-.933.545-.358.545.329.507.545l.635-.067zm-9.44-.925l-.112-1.194 1.76.425a3.38 3.38 0 0 1-1.649.769zm-.217-1.56l-.298-1.015c.843.634 2.238.231 2.619 1.425-.739.015-1.5-1.164-2.321-.41zm6.85.694a3.843 3.843 0 0 1 1.747-.5v1.112c-.701.477-1.179-.35-1.746-.612zm1.83-1.052c-.941-.747-1.732.955-2.486.604a3.082 3.082 0 0 1 2.664-1.254l-.179.65z"/>
            <path d="M48.746 15.754c-.03.06-.015.045 0 0zM40.269 23.097c.567.746-.68 2.985 1.156 2.567 2.194-1.157 7.157 2.075 6.612-2.35l1.202.067-.135 2.776-9.604-.09c.709-1.209-1.82-3.29.746-2.985M38.343 23.694a8.254 8.254 0 0 1 .351 4c-.82.202-.746-1.366-1.955-.978l-.426-2.574c.665-.193 1.343-.33 2.03-.41M35.388 23.963c.802 3.2.965 6.527.478 9.79h-.373A18.97 18.97 0 0 0 34 24.27a7.642 7.642 0 0 1 1.388-.306M51.925 23.791c-.634.843.62 3.403-1.612 2.62l-.074.925h-.463l.299-3.732 1.85.15M53.873 23.963a24.09 24.09 0 0 0-1.12 9.052h-.178a19.963 19.963 0 0 1 .186-9.052h1.112M56.694 26.65a.672.672 0 0 0-.918.2c-.194-.365 0-.917-.582-1.089a.41.41 0 0 0-.104-.746c-.545.278-.808.91-.62 1.492.56.27 1.239 1.829 2.239.881.405.227.68.63.746 1.09-.545.29-1.492-1.351-1.492.216.373.552 1.492.067 1.313 1.082-1.209-.254-3.731-.746-3.731 1.493-.232-2.485.642-4.91 1.425-7.232.575.821 1.597 1.538 1.717 2.642"/>
            <path d="M33.09 24.448c-.829.29-1.18 1.403-1.896 2.067.746.746-.746 1.306-.425 2.134.649.261.82-.574 1.186-.858.187-.097.746-.291.926.075-.09.283.104.552-.172.746l-.373-.18c-.157 1.202-1.933.411-1.814 1.702.66-.176 1.303-.406 1.926-.686 2.104-1.247 1.492 1.813 2.455 2.537.08-2.63-.546-5.232-1.813-7.537zm0 3.045c-.366.104-.284-.366-.568-.448a2.455 2.455 0 0 1-.447.56c-.56-.172-.299-1.008-.217-1.381.276-.097.358-.56.746-.38.097.178-.082.275-.171.372.186.27.836.165 1.201 0 .15.433-.403.814-.574 1.277h.03zM71.366 25.709c-.747.567-2.023.313-2.851.701-.18.374.194.463.47.545.605 2.239-3.313.254-1.336 2.06 1.799 2.239-1.418 3.269-1.836 5.306-1.238 2.985-2.828 6.522-6.037 7.694a13.09 13.09 0 0 1-3.134-4.366c.425-1.671.388-3.433 1.283-4.925.851.903 2.553 2.903 1.94 4.477l.463.27c1.903-1.978 3.329-4.687 5.888-5.971.247-1.664.112-3.507.456-5.18.985-1.223 3.216-.619 4.694-.648M43.425 27.38c-.276.187-.828 0-1.104.21l.358 1.597c-.463-.18-.843-.635-1.395-.53 0 1.201-.508 2.507.074 3.694l1.09-.575-.344 1.12c1.106.117 2.218.157 3.329.119.455-.478-.291-.828-.21-1.291.56.172 1.225 1.082 1.673.336-.112-1.105.134-2.403-.351-3.41l-1.254.537.425-1.575c-.283-.18-.641 0-.925-.075l.082-.56h4.157c-.164.747.216 1.493 1.037 1.083a.813.813 0 0 0 1.097-.851c.09 0 .09-.097.18-.097-.053 2.127.275 4.612.32 6.716l-.776 2.821-4.478-.38c-.746-.903-1.88-1.717-3.164-1.135-.962 2.612-3.858 1.187-5.694 1.776l-1-3.73c.612-1.673.202-3.732.261-5.546l.27-.097c0 .829.857 1.09 1.686.978.925.075.537-1.022.806-1.493 1.201.157 2.85-.425 3.79.388"/>
            <path d="M44.045 27.366l-.284-.456.463.083zM71.784 26.903c.104.552-.545.38-.821.567-.463.105-.836-.164-1.299-.067-.194-.746.642-.47 1.097-.664.373 0 .829-.202 1.023.164M44.627 28.373c.097.455-.806 1.403.216 1.843a5.97 5.97 0 0 1 1.373-.582l.127 1.567c-.642.292-1.41-1.171-2.03 0l.388 1.105h-1.656c.074-.552.746-1.12 0-1.567l-1.112.455v-1.493c.56.27 1.492.896 1.754-.126L43.29 28.2l1.388.157M71.784 28.007c.194.366-.27.568-.545.657l-2.127-.045c.261-1.022 1.746-.403 2.672-.612M71.724 29.672c-.821.574-2.314-.135-2.761.701v-.552c.373.179.641-.194.544-.56.463.358 1.844-.224 2.24.41M34.836 33.373c-.082.276-.358.47-.35.836.329.098.67.153 1.014.164-.47 4.075-1.299 8.62-4.955 10.724a11.231 11.231 0 0 0 1.574-9.269c-.216-1.492-1.53-2.552-1.567-4.03l1.948.232c.366-.284-.194-.545-.291-.821.567.537.82-.388 1-.85.664.91.694 2.29 1.627 2.984M31.56 31.224a.858.858 0 0 1-.65-.269l.456-.38c.117.197.184.42.194.649M55.104 30.194c.15.33.04.722-.26.925l1.119.44c-.097 0-.09.284 0 .277.47.268 1.015 0 1.492-.12-1.679 3.635-2.313 9.008-.388 12.762l.552-.105a16.806 16.806 0 0 0-.895-2.94 4.776 4.776 0 0 1 2.022 3.933c-2.686-.41-3.731-3.344-4.731-5.538-1.075-3.127-1.157-7.097 1.104-9.634M71.56 30.68c-.261.745-1.493.402-2.023.32v-.373a6.858 6.858 0 0 1 2.038.052"/>
            <path d="M31.582 36.948c-1.739 5.582-8.545 6.918-11.291 11.41-.269.097-.634.657-1.007.291-.105-.746-.314-1.836.507-2.239-1.395-.746-.134-2.03-.978-2.843-.932-.164-2.037-.142-2.783-.59.537-.656 2.239-.141 3.127-.53 1.582.62-.687 2.33 1.164 2.657l1.104-.388 5.851-7.604c.448-.657 1.299.343 1.373-.672l-.283-.276 1.604-2.798c1.306.746 1.157 2.38 1.642 3.567M46.41 37.209l4.262.47v.552a39.127 39.127 0 0 0-4.717-.186l.672 1.097c-.821.746-1.127-.814-1.776-1.075-1.582-.336-2.112.694-3.21 1.18l.62-1.217a14.18 14.18 0 0 0-4.433.269c-.179-.083-.097-.366-.104-.642a16.627 16.627 0 0 1 4.769-.261c0-.829.806-1.306 1.492-1.493 1.194-.112 1.68.896 2.425 1.343"/>
            <path d="M30.082 40.582l1.53-2.246.015 1.015zM40.32 39.545c1.792 1.813 2.284-1.246 4.143-.642l1.201 1.366c.635-.478 2.023-.41 2.008-1.24l-.09-.096 2.985.224c.321 3.59 3.306 6.306 2.426 10.112-.172.56-.918.298-1.292.209-.746-.814.135-2.493-1.26-2.747a1.388 1.388 0 0 0-1.27.956c.195.641.404 1.746-.328 2.238-2.76.433-.171-3.962-3.194-2.612-.627.747.052 2.314-1.149 2.523-2.239.5-1.112-4.694-3.731-1.963-.172.746.127 2.03-.791 2.239a.82.82 0 0 1-1.03-.776c0-.926.515-2.045-.515-2.575-2.03-.052-.485 3.336-2.814 2.552-.626-3.59 2.463-6.335 2.24-10.119.94-.223 1.891-.395 2.85-.515l-.35.836M29.709 44.933l.47.358c-.09.187-.276 0-.455.105-.485-1.008-.052-2.403.388-3.426l1.373-1.418c-.15 1.664-.955 2.985-1.761 4.38M18.336 44.239c.104.642-.896 1.679.224 2.12l-.135 2.5-2.037-.15c-.201-.746 2.03-.134 1.18-1.313a5.388 5.388 0 0 1-1.755.126l.075-.649c.642.187 1.33.14 1.94-.134.075-1.015-3.888-.291-1.224-1.172.366-.283.747.35 1.105-.209.164-1.022-1.209-.254-1.59-.746h-.306c0-1.388 1.568-.127 2.493-.418"/>
            <path d="M38.358 47.53c-.746 3.433-1.612 7.463-1.164 11.194.202.746 1.866.888.59 1.657-.083.462.38.634.567.813 1.29-.209-.217-1.836 1.26-1.687 1.62-2.343 1.493-5.29 1.874-8.074.157-1.202.134-2.403.388-3.515a52.112 52.112 0 0 0 .575 9.963c-.067 1.209 2.425 1.06 1.246 2.47-.082.283.291.552.478.545 1.492-.12-.321-2.023 1.492-1.97 1.687-3.359-.336-7.568.515-11.008a.373.373 0 0 1 .47.358 40.933 40.933 0 0 0 1.306 10.052c.21.821 1.68.702 1.06 1.821 0 .187.194.463.373.455.18-.007.366-.194.552-.38a4.866 4.866 0 0 1-.12-1.194c2.113-.97.941-4.09.904-5.843a18.172 18.172 0 0 1-.664-5.44c.09-.18.179-.098.365-.098a52.985 52.985 0 0 0 1.956 10.784c.843.746 1.492 1.171 1.492 2.186a.836.836 0 0 0 .821-.298c-1.127-1.082.53-1.582.694-2.597.209-3.239-1.045-5.97-1.284-8.754 1.493 3.731 1.493 8.21 2.918 11.94-.276.374-1.104.21-1.567.12-.194-.366-.843-.261-1.112-.067-.537.843-1.843.313-2.485.507a1.164 1.164 0 0 0-1.492-.433c-.538 1.217-1.933.508-2.851.747a1.201 1.201 0 0 0-1.672-.336c-.746.656-2.03.313-3.044.433a1.366 1.366 0 0 0-1.672-.433c-.537.746-1.65.313-2.485.328-1.314-.992-3.224.746-4.538-.65a3.687 3.687 0 0 1-2.985.337c1.03-4.082 1.77-8.44 2.896-12.53l.448-.657c-.493 3.15-2.082 6.605-1.553 10.105 0 .828 1.493 1.171.224 1.932.276.18.291.918.933.627.537-.746 0-1.29 1.075-1.679 1.873-3.552 1.776-8.074 3.186-11.709"/>
            <path d="M36.746 50.239a77.47 77.47 0 0 1-1.865 8.358c-.277.187-.821.567-1.105.112-.955-1.493.314-2.873.187-4.478a24.627 24.627 0 0 1 1.022-4.544 1.843 1.843 0 0 0 1.761.514M45.164 50.627c.142 2.492.85 5.433.06 7.672-.397.29-.899.398-1.38.298l-.747-1-.515-7.463c.79.44 1.7.615 2.597.5M40.731 50.828l-.873 7.232a1.284 1.284 0 0 1-1.739.679l-.574-.821.962-7.508a2.65 2.65 0 0 0 2.24.418M53.47 50.082c.515 2.485 1.396 4.963 1.172 7.65-.366.47-1.366 1.044-1.754.402a36.91 36.91 0 0 1-1.634-7.91c.746.35 1.492 0 2.239-.142M49.396 50.634c.41 2.306 1.201 4.873.79 7.284-.171.65-.91.664-1.38.492-.955-1.738-.746-3.962-1.313-5.888h-.187c.269-.462-.209-1.29-.045-2.03a2.157 2.157 0 0 0 2.135.142M34.47 62.485c.918-.209 2.239.321 2.761-.522.821-.38.747.746 1.396.62l1.298.066c-1.492 3.732-2.44 7.538-4.403 10.993-.06 1.492.821 3.865-.544 4.813l-4.172-.649c.261-.657-.485-.918-.672-1.284 1.493-4.373.91-9.626 1.844-13.985 1.119.747 1.813-1.612 2.492-.052M55.739 61.963c.746 2.985.5 6.365 1.664 9.12-.336 1.947.358 4.051.12 5.97-.366.38-.635.663-.53 1.208l-3.874.358a35.075 35.075 0 0 1-.746-5.223c-1.828-3.47-4.201-6.717-4.38-11 .828-.202 2.41.507 2.574-.695.552-.194.746.351 1.03.53 1.104-.201 2.776.5 3.216-.746.187.09.478.634.933.44"/>
            <path d="M30.09 77.448c-.359.746.574 1.007 1.037 1.179 1.664-.127 4.477 1.574 5.343-.746.276-.097.373.09.463.179-1.493 1.783-4.075 3.776-3.187 6.62-.552.29-.746-.747-1.134-.993-.672-1.187 1.343-2.426-.515-2.851-.657-.269-1.59-.985-2.313-.232-.165.926.044 2.24-.97 2.515a.5.5 0 0 0-.292-.641l-.447.656.425-1.768c0 .283-.075.746.291.746.552-.194.448-.933.806-1.313-.567-.635.35-1.21-.313-1.836l-.784 1.015c.522-1.306-1.373-3.575.567-3.896.194.552.396 1.284 1.045 1.366M60.052 83.313c-.201-.544-.671-1-.955-1.641 1.493-.217-.209-1.105.142-1.851-.485-1.284.582-3.157-.164-3.694 0 1.492-1.724 1.418-1.702 2.806l-4.612.276c-.65 0-.85-1-1.492-.522.582 1.373 2.627 1.798 3.298 3.074.396 1.194-.701 2.045-.313 2.985.56.172.455-.47.82-.746-1.335-2.007 1.493-2.067 2.433-2.91 1.12.432.687 1.828 1.247 2.283.186-.097.462 0 .365-.283l.933.223zm-1.903-2.73l.523-1.493c-.269.56.582 1.492.597 2.298-.456.194-.747-.537-1.12-.806z"/>
            <path d="M28.493 81.082l-.292-.642.284.366zM32.03 82.12c-.18.193-.366.47-.642.387 0-.649-.925-.171-.94-.813 0-1.112 2.239-.507 1.582.425M57.806 82.254c.112.746-.746.477-1.09.746-.268.463.388.91.851.903.642-.194 1.21.44 1.657-.127.85.746.746 2.015.992 3.127 1.388.246 2.426 1.336 3.463 2.328 1.21.344 2.687.5 3.448 1.493-3.493.62-6.56-.06-10.246.388-.112-.925-.418-2.306.119-3.142-.216-1.574-2.38-3.56-.463-4.709v-.276l-.836-.172c.747-.104 1.538-1.694 2.112-.59M30.925 87.134c-.246 1.493.747 3.217-.656 3.896-3.433-.493-6.269.866-9.426 0-.574-1.097.896-1.217 1.635-1.493 2.238-.231 3.731-2.201 6.141-2.343l.18-.284c-.933-.343-.508-2.111-.336-3.037.91-.574 1.933-.134 2.843-.888 2.052.88-.41 2.687-.38 4.164"/>
        </g>
        <path fill="#FCEE21" d="M19.18 12.112l.104.492a3.246 3.246 0 0 0-.105-.492z"/>
        <path fill="#FFEF00" d="M19.104 38.888c0-9.269.127-10.65.068-12.963-.06-4.619 0-8.44-.105-13.858 0-.097.075-.06.112 0l-.612-2.82-.746-1.172c-1.336 1.88-1.097 2.865-1.433 4.574l-.052 26.24a38.296 38.296 0 0 1-3.09-.635v2.768c1.269-.119 2.314-1.619 3.985-.91.291.545 0 1.194.224 1.746 1.015.075.433-1.306.888-1.768a5.224 5.224 0 0 1 3.88 1.119l-.059-2.985-3.06.664zM16.44 51.388a3.5 3.5 0 0 0 2.873.216l-.746-2.014c-1.15-.344-1.492 1.238-2.127 1.798zM69.037 24.828h1.015l-.246-.865c0-1.44-.306-2.03 1.761-1.97V21l-3.88-.075-.045 1.291c1.903-.671 1.477 1.47 1.395 2.612zM76.366 49.172l1-.747a1.687 1.687 0 0 0-.314-2.022c-.567-.455-1.298-.164-1.94.037-.709 1.582-2.575.605-3.963.814a1.94 1.94 0 0 0-1.328-1.56V31.858l-.71.127v13.806l-.924.38c-.426 1.97-2.986.822-4.321 1.217-.657-.448-1.232-1.179-2.15-1.067-.641.201-1.492.746-1.26 1.694-.262.925.745 1.179 1.328 1.634-.672 3.247-3.65 6.91-1.277 10.187a4.216 4.216 0 0 0 3.523.574 3.15 3.15 0 0 0 2.239-2.813c-.702-2.948-2.329-5.5-3.217-8.44l.358-.65c1.754 0 3.62-.746 5.381 1a2.239 2.239 0 0 0 2.47-1.156c1.105.067 3.224-.53 3.896.746l-2.358 6.791c-.523 1.493-.217 3.239 1.186 4.037a4.127 4.127 0 0 0 3.336.217c4.701-3.18-.522-6.41-.955-10.97zM65.172 56.91H60.09l2.462-6.828c.873 2.127 2.023 4.321 2.627 6.828h-.007zm8.209 0l2.447-6.828c.873 2.105 2.03 4.299 2.627 6.806l-5.074.022z"/>
    </g>
</svg>
